<?xml version="1.0" encoding="UTF-8" standalone="no"?>
<svg
   xmlns:dc="http://purl.org/dc/elements/1.1/"
   xmlns:cc="http://creativecommons.org/ns#"
   xmlns:rdf="http://www.w3.org/1999/02/22-rdf-syntax-ns#"
   xmlns:svg="http://www.w3.org/2000/svg"
   xmlns="http://www.w3.org/2000/svg"
   viewBox="0 0 387.76001 519.52002"
   height="519.52002"
   width="387.76001"
   xml:space="preserve"
   id="svg2"
   version="1.1"><metadata
     id="metadata8"><rdf:RDF><cc:Work
         rdf:about=""><dc:format>image/svg+xml</dc:format><dc:type
           rdf:resource="http://purl.org/dc/dcmitype/StillImage" /></cc:Work></rdf:RDF></metadata><defs
     id="defs6"><clipPath
       id="clipPath20"
       clipPathUnits="userSpaceOnUse"><path
         id="path18"
         d="M 1450.88,3629.14 599.934,2988.43 V 918.609 H 2301.82 v 0 2069.821 z" /></clipPath><linearGradient
       id="linearGradient26"
       spreadMethod="pad"
       gradientTransform="matrix(1976.25,0,0,-1976.25,657.198,2273.88)"
       gradientUnits="userSpaceOnUse"
       y2="0"
       x2="1"
       y1="0"
       x1="0"><stop
         id="stop22"
         offset="0"
         style="stop-opacity:1;stop-color:#89cf25" /><stop
         id="stop24"
         offset="1"
         style="stop-opacity:1;stop-color:#49b539" /></linearGradient></defs><g
     transform="matrix(1.3333333,0,0,-1.3333333,0,519.52)"
     id="g10"><g
       transform="scale(0.1)"
       id="g12"><g
         id="g14"><g
           clip-path="url(#clipPath20)"
           id="g16"><path
             id="path28"
             style="fill:url(#linearGradient26);fill-opacity:1;fill-rule:nonzero;stroke:none"
             d="M 1450.88,3629.14 599.934,2988.43 V 918.609 H 2301.82 v 0 2069.821 l -850.94,640.71" /></g></g><path
         id="path30"
         style="fill:#19321c;fill-opacity:1;fill-rule:nonzero;stroke:none"
         d="M 620.293,605.129 H 579.586 V 3495.91 h 40.707 V 605.129" /><path
         id="path32"
         style="fill:#19321c;fill-opacity:1;fill-rule:nonzero;stroke:none"
         d="m 2322.16,605.129 h -40.7 V 3495.91 h 40.7 V 605.129" /><path
         id="path34"
         style="fill:#19321c;fill-opacity:1;fill-rule:nonzero;stroke:none"
         d="M 2631.14,898.262 H 270.613 v 40.699 H 2631.14 v -40.699" /><path
         id="path36"
         style="fill:#19321c;fill-opacity:1;fill-rule:nonzero;stroke:none"
         d="m 282.855,2724.22 -24.484,32.51 1513.619,1139.67 24.49,-32.51 L 282.855,2724.22" /><path
         id="path38"
         style="fill:#19321c;fill-opacity:1;fill-rule:nonzero;stroke:none"
         d="m 2625.35,2719.36 -1520.07,1144.53 24.48,32.51 1520.08,-1144.53 -24.49,-32.51" /><path
         id="path40"
         style="fill:#19321c;fill-opacity:1;fill-rule:nonzero;stroke:none"
         d="M 864.48,918.66 H 820.797 V 2988.4 H 864.48 V 918.66" /><path
         id="path42"
         style="fill:#19321c;fill-opacity:1;fill-rule:nonzero;stroke:none"
         d="m 1168.71,918.66 h -43.68 V 2988.4 h 43.68 V 918.66" /><path
         id="path44"
         style="fill:#19321c;fill-opacity:1;fill-rule:nonzero;stroke:none"
         d="m 1472.74,918.66 h -43.68 V 2988.4 h 43.68 V 918.66" /><path
         id="path46"
         style="fill:#19321c;fill-opacity:1;fill-rule:nonzero;stroke:none"
         d="m 1776.74,918.66 h -43.68 V 2988.4 h 43.68 V 918.66" /><path
         id="path48"
         style="fill:#19321c;fill-opacity:1;fill-rule:nonzero;stroke:none"
         d="m 2080.97,918.66 h -43.68 V 2988.4 h 43.68 V 918.66" /><path
         id="path50"
         style="fill:#19321c;fill-opacity:1;fill-rule:nonzero;stroke:none"
         d="M 2631.14,2968.08 H 270.613 v 40.7 H 2631.14 v -40.7" /><path
         id="path52"
         style="fill:#19321c;fill-opacity:1;fill-rule:nonzero;stroke:none"
         d="M 2322.45,2660.44 H 599.938 v 40.7 H 2322.45 v -40.7" /><path
         id="path54"
         style="fill:#19321c;fill-opacity:1;fill-rule:nonzero;stroke:none"
         d="M 2322.45,2822.05 H 599.938 v 40.7 H 2322.45 v -40.7" /><path
         id="path56"
         style="fill:#19321c;fill-opacity:1;fill-rule:nonzero;stroke:none"
         d="M 2322.45,2498.83 H 599.938 v 40.69 H 2322.45 v -40.69" /><path
         id="path58"
         style="fill:#19321c;fill-opacity:1;fill-rule:nonzero;stroke:none"
         d="M 2322.45,2337.21 H 599.938 v 40.7 H 2322.45 v -40.7" /><path
         id="path60"
         style="fill:#19321c;fill-opacity:1;fill-rule:nonzero;stroke:none"
         d="M 2322.45,2175.6 H 599.938 v 40.7 H 2322.45 v -40.7" /><path
         id="path62"
         style="fill:#19321c;fill-opacity:1;fill-rule:nonzero;stroke:none"
         d="M 2322.45,2013.99 H 599.938 v 40.69 H 2322.45 v -40.69" /><path
         id="path64"
         style="fill:#19321c;fill-opacity:1;fill-rule:nonzero;stroke:none"
         d="M 2322.45,1852.38 H 599.938 v 40.69 H 2322.45 v -40.69" /><path
         id="path66"
         style="fill:#19321c;fill-opacity:1;fill-rule:nonzero;stroke:none"
         d="M 2322.45,1690.76 H 599.938 v 40.7 H 2322.45 v -40.7" /><path
         id="path68"
         style="fill:#19321c;fill-opacity:1;fill-rule:nonzero;stroke:none"
         d="M 2322.45,1529.15 H 599.938 v 40.7 H 2322.45 v -40.7" /><path
         id="path70"
         style="fill:#19321c;fill-opacity:1;fill-rule:nonzero;stroke:none"
         d="M 2322.45,1367.54 H 599.938 v 40.7 H 2322.45 v -40.7" /><path
         id="path72"
         style="fill:#19321c;fill-opacity:1;fill-rule:nonzero;stroke:none"
         d="M 2322.45,1205.93 H 599.938 v 40.7 H 2322.45 v -40.7" /><path
         id="path74"
         style="fill:#19321c;fill-opacity:1;fill-rule:nonzero;stroke:none"
         d="M 2322.45,1044.31 H 599.938 v 40.71 H 2322.45 v -40.71" /><path
         id="path76"
         style="fill:#19321c;fill-opacity:1;fill-rule:nonzero;stroke:none"
         d="m 1528.83,3444.82 h -295.74 v 40.7 h 295.74 v -40.7" /><path
         id="path78"
         style="fill:#1b321e;fill-opacity:1;fill-rule:nonzero;stroke:none"
         d="M 297.953,62.3906 C 286.789,43.5391 270.227,28.4492 248.297,17.082 226.363,5.67969 199.664,0 168.215,0 137.18,0 109.457,5.28125 85.043,15.832 60.6211,26.3789 41.0586,41.5898 26.3789,61.4492 11.6758,81.332 3.30469,104.5 1.23828,130.969 H 94.3477 C 96.418,113.18 103.551,98.3906 115.77,86.6016 c 12.191,-11.8008 28.437,-17.6914 48.726,-17.6914 18.203,0 32.168,4.8593 41.902,14.582 9.719,9.7187 14.59,22.2378 14.59,37.5588 0,13.66 -3.941,24.918 -11.8,33.828 -7.856,8.891 -17.797,16.031 -29.797,21.422 -12.012,5.371 -28.547,11.578 -49.653,18.621 -27.324,9.09 -49.6638,18.098 -67.0505,27 -17.3828,8.898 -32.1836,21.828 -44.375,38.789 -12.21484,16.969 -18.31640625,39.121 -18.31640625,66.43 0,37.648 13.55470625,67.347 40.66020625,89.07 27.1015,21.73 63.0077,32.598 107.6987,32.598 46.34,0 83.282,-11.18 110.801,-33.528 27.52,-22.34 43.141,-52.14 46.864,-89.39 h -94.348 c -2.484,15.73 -9.106,28.66 -19.867,38.8 -10.762,10.141 -25.45,15.207 -44.075,15.207 -16.132,0 -29.167,-4.25 -39.093,-12.718 -9.9417,-8.489 -14.9026,-20.801 -14.9026,-36.95 0,-12.82 3.8203,-23.48 11.4846,-31.96 7.648,-8.481 17.371,-15.418 29.172,-20.79 11.789,-5.378 27.824,-11.39 48.113,-18 28.129,-9.941 50.996,-19.25 68.586,-27.941 17.578,-8.687 32.59,-21.73 45,-39.109 12.414,-17.371 18.621,-40.141 18.621,-68.27 0,-22.359 -5.582,-42.9491 -16.758,-61.7694" /><path
         id="path80"
         style="fill:#1b321e;fill-opacity:1;fill-rule:nonzero;stroke:none"
         d="M 554.32,442.602 V 4.33984 H 466.789 V 442.602 h 87.531" /><path
         id="path82"
         style="fill:#1b321e;fill-opacity:1;fill-rule:nonzero;stroke:none"
         d="M 808.824,71.3789 H 955.949 V 4.33984 H 721.297 V 442.602 h 87.527 V 71.3789" /><path
         id="path84"
         style="fill:#1b321e;fill-opacity:1;fill-rule:nonzero;stroke:none"
         d="m 1233.42,350.73 c -19.45,-11.589 -34.65,-28.238 -45.62,-49.968 -10.97,-21.731 -16.45,-47.082 -16.45,-76.051 0,-28.961 5.48,-54.313 16.45,-76.039 10.97,-21.723 26.17,-38.383 45.62,-49.9611 19.45,-11.5898 42,-17.3789 67.66,-17.3789 25.66,0 48.21,5.7891 67.67,17.3789 19.45,11.5781 34.65,28.2381 45.63,49.9611 10.95,21.726 16.44,47.078 16.44,76.039 0,28.969 -5.49,54.32 -16.44,76.051 -10.98,21.73 -26.18,38.379 -45.63,49.968 -19.46,11.579 -42.01,17.379 -67.67,17.379 -25.66,0 -48.21,-5.8 -67.66,-17.379 z m 179.09,69.52 c 33.31,-19.031 59.59,-45.621 78.83,-79.762 19.25,-34.148 28.87,-72.738 28.87,-115.777 0,-43.039 -9.62,-81.731 -28.87,-116.082 C 1472.1,74.2813 1445.82,47.5898 1412.51,28.5586 1379.2,9.51172 1342.05,0 1301.08,0 c -40.96,0 -78.11,9.51172 -111.42,28.5586 -33.31,19.0312 -59.58,45.7227 -78.83,80.0704 -19.24,34.351 -28.86,73.043 -28.86,116.082 0,43.039 9.62,81.629 28.86,115.777 19.25,34.141 45.52,60.731 78.83,79.762 33.31,19.02 70.46,28.559 111.42,28.559 40.97,0 78.12,-9.539 111.43,-28.559" /><path
         id="path86"
         style="fill:#1b321e;fill-opacity:1;fill-rule:nonzero;stroke:none"
         d="m 1919.34,149.609 -80.07,220.973 -80.08,-220.973 z m 16.15,-44.089 H 1743.06 L 1706.43,4.33984 h -60.84 L 1807.61,433.91 h 63.94 L 2032.94,4.33984 h -60.83 L 1935.49,105.52" /><path
         id="path88"
         style="fill:#1b321e;fill-opacity:1;fill-rule:nonzero;stroke:none"
         d="m 2385.84,249.539 c 15.11,14.481 22.66,34.973 22.66,61.453 0,27.328 -7.55,48.11 -22.66,62.399 -15.11,14.269 -39.83,21.41 -74.19,21.41 h -77.59 V 227.82 h 77.59 c 34.36,0 59.08,7.239 74.19,21.719 z M 2234.06,180.641 V 4.33984 h -56.48 V 441.98 h 139.04 c 50.07,0 87.53,-11.71 112.36,-35.082 24.82,-23.378 37.25,-55.347 37.25,-95.906 0,-40.961 -12.84,-72.941 -38.48,-95.902 -25.68,-22.961 -62.71,-34.449 -111.13,-34.449 h -82.56" /><path
         id="path90"
         style="fill:#1b321e;fill-opacity:1;fill-rule:nonzero;stroke:none"
         d="m 2827.81,249.539 c 15.11,14.481 22.66,34.973 22.66,61.453 0,27.328 -7.55,48.11 -22.66,62.399 -15.1,14.269 -39.83,21.41 -74.17,21.41 h -77.59 V 227.82 h 77.59 c 34.34,0 59.07,7.239 74.17,21.719 z M 2676.05,180.641 V 4.33984 h -56.49 V 441.98 h 139.05 c 50.06,0 87.52,-11.71 112.35,-35.082 24.82,-23.378 37.25,-55.347 37.25,-95.906 0,-40.961 -12.85,-72.941 -38.49,-95.902 -25.67,-22.961 -62.71,-34.449 -111.11,-34.449 h -82.56" /></g></g></svg>